<svg width="34" height="34" fill="none" xmlns="http://www.w3.org/2000/svg"><path d="m.34 33.666 2.254-8.28A16.59 16.59 0 0 1 .334 17C.334 7.795 7.795.333 17 .333S33.667 7.795 33.667 17c0 9.205-7.462 16.666-16.667 16.666a16.59 16.59 0 0 1-8.383-2.258L.34 33.666zM10.985 9.18c-.215.013-.425.07-.618.166-.18.103-.346.23-.49.38-.2.189-.313.352-.435.51a4.548 4.548 0 0 0-.942 2.797c.004.817.217 1.612.55 2.355.682 1.503 1.803 3.095 3.285 4.57.357.355.705.712 1.08 1.043a15.746 15.746 0 0 0 6.4 3.41l.948.145c.309.017.617-.006.927-.021.486-.025.96-.157 1.388-.385.277-.147.407-.22.639-.367 0 0 .072-.047.208-.15.225-.167.363-.285.55-.48.138-.143.258-.312.35-.503.13-.272.26-.79.314-1.222.04-.33.028-.51.023-.622-.007-.178-.155-.363-.317-.441l-.97-.435s-1.45-.632-2.335-1.035a.83.83 0 0 0-.295-.069.804.804 0 0 0-.63.212v-.003c-.008 0-.12.095-1.325 1.555a.583.583 0 0 1-.613.216 2.358 2.358 0 0 1-.319-.11c-.206-.086-.278-.12-.42-.181l-.008-.004a10.016 10.016 0 0 1-2.617-1.666c-.21-.184-.405-.384-.604-.577a10.494 10.494 0 0 1-1.7-2.113l-.099-.159a1.54 1.54 0 0 1-.17-.341c-.063-.245.102-.442.102-.442s.405-.443.593-.683c.157-.2.303-.407.438-.622.197-.317.259-.642.155-.893-.466-1.14-.95-2.275-1.446-3.402-.099-.223-.39-.383-.655-.415-.09-.01-.18-.02-.27-.027a5.642 5.642 0 0 0-.672.007v.002z" fill="#fff"/></svg>