<svg width="14" height="7" viewBox="0 0 14 7" fill="none" xmlns="http://www.w3.org/2000/svg">
<path d="M13.3758 2.69395C14.0753 2.18839 14.2067 1.24514 13.6692 0.587146C13.1317 -0.0708509 12.1289 -0.194426 11.4294 0.311133L6.36288 3.97272C5.66334 4.47828 5.53196 5.42152 6.06944 6.07952C6.60691 6.73752 7.60972 6.86109 8.30926 6.35554L13.3758 2.69395Z" fill="#3A3A3C"/>
<path d="M3.23567 0.315928C2.53545 -0.1888 1.53281 -0.064034 0.996217 0.594601C0.459622 1.25324 0.592264 2.19633 1.29248 2.70106L6.36392 6.35662C7.06414 6.86135 8.06677 6.73658 8.60337 6.07795C9.13996 5.41931 9.00732 4.47622 8.3071 3.97149L3.23567 0.315928Z" fill="#3A3A3C"/>
</svg>
