<svg width="28" height="28" fill="none" xmlns="http://www.w3.org/2000/svg"><path d="m.672 27.333 1.803-6.624a13.272 13.272 0 0 1-1.808-6.71C.667 6.637 6.637.667 14 .667c7.364 0 13.333 5.97 13.333 13.334S21.364 27.333 14 27.333a13.272 13.272 0 0 1-6.707-1.807l-6.62 1.807zm8.516-19.59c-.172.011-.34.057-.495.134a1.724 1.724 0 0 0-.392.304c-.16.15-.25.281-.348.408a3.639 3.639 0 0 0-.753 2.237c.003.654.173 1.29.44 1.884.545 1.203 1.443 2.476 2.628 3.656.285.284.564.57.864.835a12.597 12.597 0 0 0 5.12 2.728l.759.116c.246.013.493-.005.741-.017.388-.02.768-.125 1.11-.308.222-.118.326-.176.511-.294 0 0 .058-.037.167-.12.18-.133.29-.228.44-.384.11-.114.207-.249.28-.402.104-.218.208-.632.25-.978.033-.264.023-.408.02-.497-.006-.143-.125-.29-.254-.353l-.776-.348s-1.16-.506-1.868-.828a.665.665 0 0 0-.236-.055.644.644 0 0 0-.504.17v-.003c-.007 0-.096.076-1.06 1.244a.466.466 0 0 1-.49.173 1.877 1.877 0 0 1-.255-.088c-.166-.07-.223-.096-.336-.145l-.007-.003a8.011 8.011 0 0 1-2.093-1.333c-.168-.147-.324-.307-.484-.462a8.396 8.396 0 0 1-1.36-1.69l-.079-.127a1.23 1.23 0 0 1-.136-.273c-.05-.196.081-.354.081-.354s.324-.354.475-.546a5.85 5.85 0 0 0 .35-.498c.158-.253.207-.513.125-.714-.374-.912-.76-1.82-1.158-2.722-.078-.178-.312-.306-.524-.332-.072-.008-.144-.016-.216-.021a4.512 4.512 0 0 0-.537.005v.002z" fill="#333"/></svg>