<svg width="145" height="145" viewBox="0 0 145 145" fill="none" xmlns="http://www.w3.org/2000/svg">
<g clip-path="url(#clip0_428_1524)">
<path d="M74.7309 133.553C106.944 133.553 133.057 107.439 133.057 75.2266C133.057 43.0137 106.944 16.9 74.7309 16.9C42.518 16.9 16.4043 43.0137 16.4043 75.2266C16.4043 107.439 42.518 133.553 74.7309 133.553Z" fill="url(#paint0_linear_428_1524)"/>
<path d="M39.5665 97.8126L64.0753 30.5128L115.759 85.1605L55.7311 112.716C46.1153 117.131 35.946 107.754 39.5665 97.8126Z" fill="#E1DCEB"/>
<path d="M96.6037 51.7665C103.74 59.3696 109.492 66.9074 113.024 72.944C114.791 75.9641 115.995 78.5965 116.544 80.6665C116.818 81.7017 116.925 82.5834 116.863 83.296C116.802 84.0067 116.576 84.5324 116.199 84.8861C115.822 85.2397 115.283 85.4324 114.57 85.4485C113.855 85.4647 112.982 85.3023 111.966 84.963C109.935 84.2845 107.384 82.9158 104.482 80.961C98.6811 77.0537 91.5227 70.836 84.3867 63.2329C77.2507 55.6297 71.4988 48.092 67.9666 42.0553C66.1995 39.0352 64.9951 36.4028 64.4466 34.3328C64.1722 33.2976 64.0655 32.416 64.1269 31.7033C64.1881 30.9927 64.4146 30.4669 64.7914 30.1132C65.1682 29.7596 65.7072 29.5669 66.4203 29.5508C67.1354 29.5346 68.0086 29.697 69.0243 30.0363C71.0554 30.7149 73.6063 32.0835 76.5084 34.0383C82.3093 37.9457 89.4677 44.1633 96.6037 51.7665Z" fill="#011625" stroke="#011625" stroke-width="0.496396"/>
<mask id="mask0_428_1524" style="mask-type:alpha" maskUnits="userSpaceOnUse" x="38" y="30" width="78" height="84">
<path d="M39.5665 97.8126L64.0753 30.5128L115.759 85.1605L55.7311 112.716C46.1153 117.131 35.946 107.754 39.5665 97.8126Z" fill="#E1DCEB"/>
</mask>
<g mask="url(#mask0_428_1524)">
<path fill-rule="evenodd" clip-rule="evenodd" d="M62.9266 75.2634C52.5717 61.7026 47.3324 45.5357 45.6426 34.6816L53.9809 33.3834C55.502 43.1535 60.303 57.9227 69.6336 70.142C78.8764 82.2464 92.399 91.6855 111.684 91.6855V100.124C89.1775 100.124 73.3694 88.9392 62.9266 75.2634Z" fill="#011625"/>
<path fill-rule="evenodd" clip-rule="evenodd" d="M64.038 72.67C53.683 59.1092 48.4438 42.9423 46.7539 32.0882L55.0922 30.79C56.6133 40.5601 61.4144 55.3293 70.745 67.5486C79.9878 79.653 93.5103 89.0921 112.795 89.0921V97.5308C90.2889 97.5308 74.4807 86.3458 64.038 72.67Z" fill="white"/>
<path fill-rule="evenodd" clip-rule="evenodd" d="M50.7001 92.306C40.3451 78.7452 35.1059 62.5783 33.416 51.7242L41.7543 50.426C43.2754 60.1961 48.0765 74.9653 57.4071 87.1846C66.6499 99.289 80.1724 108.728 99.4575 108.728V117.167C76.951 117.167 61.1428 105.982 50.7001 92.306Z" fill="white"/>
</g>
<circle cx="86.8899" cy="103.273" r="14.8919" fill="#FE0000"/>
<path fill-rule="evenodd" clip-rule="evenodd" d="M92.9166 98.7543C93.4932 99.3409 93.4851 100.284 92.8986 100.86L85.8287 107.81C85.2492 108.379 84.3202 108.379 83.7408 107.81L80.8828 105C80.2962 104.424 80.2881 103.481 80.8647 102.894C81.4412 102.308 82.3841 102.3 82.9706 102.876L84.7847 104.66L90.8107 98.7363C91.3972 98.1597 92.3401 98.1678 92.9166 98.7543Z" fill="white"/>
<path d="M116.013 32.1737L116.013 32.1736C116.895 29.9357 117.246 27.7037 117.614 25.3643C117.677 24.9657 117.74 24.564 117.806 24.1586L116.013 32.1737ZM116.013 32.1737C115.863 32.5557 115.43 32.7446 115.049 32.5937L115.047 32.5932C114.665 32.4448 114.476 32.0129 114.627 31.6315L114.627 31.6314M116.013 32.1737L114.627 31.6314M114.627 31.6314C115.467 29.4948 115.799 27.3553 116.136 25.1827M114.627 31.6314L116.136 25.1827M116.136 25.1827C116.201 24.7629 116.267 24.342 116.336 23.9195L116.136 25.1827ZM117.191 23.3048C117.598 23.3717 117.872 23.7536 117.806 24.1585L116.336 23.9194C116.402 23.5135 116.786 23.238 117.191 23.3048Z" fill="#011625" stroke="#011625" stroke-width="0.496396"/>
<path d="M121.134 38.1427L121.134 38.1429C120.797 38.377 120.332 38.2928 120.097 37.9561C119.863 37.621 119.946 37.1583 120.283 36.9236C125.281 33.4637 130.178 28.8044 133.82 23.9233L133.82 23.9232C134.064 23.5947 134.532 23.5264 134.863 23.7711C135.192 24.0145 135.261 24.4801 135.016 24.8091C131.284 29.8117 126.261 34.5916 121.134 38.1427Z" fill="#011625" stroke="#011625" stroke-width="0.496396"/>
<path d="M134.892 41.4146L134.892 41.4142C134.779 41.0203 134.366 40.7915 133.97 40.9036C130.276 41.9602 126.14 42.5739 122.335 41.4128L122.335 41.4128C121.941 41.2925 121.524 41.5146 121.405 41.9045L121.405 41.9046C121.285 42.2942 121.506 42.7113 121.9 42.8316L134.892 41.4146ZM134.892 41.4146C135.005 41.8044 134.778 42.2163 134.382 42.3312M134.892 41.4146L134.382 42.3312M134.382 42.3312C130.363 43.4795 125.935 44.0636 121.9 42.8316L134.382 42.3312Z" fill="#011625" stroke="#011625" stroke-width="0.496396"/>
<circle cx="122.137" cy="50.1586" r="2.97838" fill="#1749B3"/>
<circle cx="97.3163" cy="19.3819" r="2.97838" fill="#1749B3"/>
<path d="M103.046 32.5171C102.789 31.4528 101.275 31.4528 101.018 32.5171L100.685 33.8957C100.593 34.276 100.296 34.5729 99.916 34.6648L98.5375 34.9975C97.4732 35.2544 97.4732 36.7683 98.5375 37.0252L99.916 37.358C100.296 37.4498 100.593 37.7467 100.685 38.1271L101.018 39.5056C101.275 40.5699 102.789 40.5699 103.046 39.5056L103.378 38.1271C103.47 37.7467 103.767 37.4498 104.147 37.358L105.526 37.0252C106.59 36.7683 106.59 35.2544 105.526 34.9975L104.147 34.6648C103.767 34.5729 103.47 34.276 103.378 33.8957L103.046 32.5171Z" fill="#1749B3"/>
<path fill-rule="evenodd" clip-rule="evenodd" d="M90.3487 9.6083C90.6497 10.3737 90.2732 11.2382 89.5078 11.5392C87.3231 12.3983 84.5232 15.1655 82.6538 18.6099C81.2309 21.2318 80.5397 23.8796 80.8299 26.0465C81.7041 24.7987 82.7507 23.7751 83.9647 23.1175C86.1407 21.9388 88.6234 22.0639 91.0271 23.7019C93.1273 25.1331 93.9837 27.1696 93.7569 29.1988C93.54 31.1389 92.3566 32.8928 90.751 33.9946C89.1214 35.1129 86.9576 35.6286 84.7257 34.9451C83.4604 34.5576 82.247 33.8084 81.1364 32.6708C80.0771 36.795 80.1152 41.961 81.8661 46.53C82.1604 47.298 81.7764 48.1591 81.0084 48.4535C80.2405 48.7478 79.3793 48.3638 79.085 47.5958C76.7758 41.5701 77.0758 34.6883 78.9588 29.6762C78.9053 29.5795 78.8523 29.4816 78.7997 29.3823C76.8188 25.6422 78.0048 20.932 80.0361 17.1892C82.0831 13.4176 85.3291 9.98197 88.4179 8.76739C89.1833 8.4664 90.0477 8.84289 90.3487 9.6083ZM82.303 29.4202C83.4277 31.0179 84.5946 31.7901 85.5977 32.0973C86.861 32.4841 88.0927 32.2066 89.0658 31.5388C90.0629 30.8546 90.6895 29.8294 90.7969 28.8679C90.8945 27.9955 90.5896 27.008 89.3498 26.1631C87.7785 25.0924 86.4881 25.1379 85.3832 25.7364C84.2815 26.3332 83.1906 27.582 82.303 29.4202Z" fill="#E3E3E3"/>
<path fill-rule="evenodd" clip-rule="evenodd" d="M138.421 67.8509C122.812 62.0491 110.866 69.2634 107.003 73.3438C106.061 74.3393 104.49 74.3823 103.494 73.44C102.499 72.4976 102.456 70.9267 103.398 69.9312C108.304 64.7493 122.268 56.5512 140.151 63.1979C141.436 63.6755 142.09 65.1042 141.613 66.3891C141.135 67.674 139.706 68.3285 138.421 67.8509Z" fill="#CCC6D9"/>
<path fill-rule="evenodd" clip-rule="evenodd" d="M122.541 73.0667C122.89 72.9391 123.256 72.7696 123.539 72.5242C123.875 72.2327 124.011 71.8572 124.103 71.462C124.221 70.9543 124.268 70.4135 124.41 69.905C124.463 69.7161 124.565 69.6447 124.609 69.613C124.719 69.533 124.83 69.5116 124.935 69.5196C125.06 69.5289 125.23 69.5772 125.343 69.7914C125.359 69.822 125.38 69.8687 125.394 69.9327C125.404 69.9796 125.41 70.1263 125.421 70.1868C125.448 70.3357 125.471 70.4847 125.492 70.6344C125.563 71.1329 125.603 71.5563 125.827 72.0142C126.129 72.6359 126.433 73.0163 126.845 73.1847C127.243 73.3477 127.718 73.317 128.326 73.1893C128.384 73.1749 128.441 73.1625 128.498 73.1524C128.766 73.1043 129.022 73.2851 129.075 73.5596C129.128 73.8338 128.957 74.101 128.692 74.1613C128.636 74.1738 128.582 74.1858 128.528 74.1967C127.706 74.4057 126.755 75.1516 126.202 75.8048C126.032 76.0062 125.782 76.5692 125.528 76.9284C125.34 77.1934 125.129 77.368 124.952 77.4298C124.833 77.4713 124.733 77.4649 124.65 77.444C124.53 77.4135 124.431 77.3466 124.354 77.2403C124.312 77.1821 124.274 77.1041 124.255 77.0045C124.247 76.9566 124.246 76.8348 124.246 76.7797C124.194 76.5964 124.131 76.4174 124.084 76.2325C123.974 75.7912 123.758 75.5118 123.501 75.1428C123.26 74.7974 123.002 74.5803 122.623 74.4071C122.574 74.3948 122.177 74.2948 122.036 74.2374C121.831 74.1533 121.734 74.0123 121.698 73.9364C121.638 73.8077 121.632 73.6951 121.644 73.6013C121.662 73.4629 121.722 73.3444 121.829 73.2487C121.896 73.1893 121.995 73.1315 122.128 73.1033C122.231 73.0813 122.503 73.0685 122.541 73.0667ZM124.873 72.3475C124.891 72.3896 124.911 72.432 124.931 72.4748C125.375 73.3853 125.871 73.8937 126.474 74.1403L126.494 74.1483C126.091 74.4561 125.726 74.8001 125.447 75.1298C125.332 75.2656 125.18 75.5476 125.015 75.8369C124.866 75.338 124.622 74.9854 124.315 74.5441C124.08 74.2074 123.834 73.9539 123.532 73.7474C123.767 73.6238 123.99 73.4789 124.185 73.3098C124.509 73.0282 124.724 72.7019 124.873 72.3475Z" fill="#1749B3"/>
<path d="M32.5492 80.8854C32.5119 81.1987 32.227 81.4215 31.9137 81.382C31.6026 81.3424 31.3788 81.0558 31.4184 80.742L32.5492 80.8854ZM32.5492 80.8854L32.7957 80.9147C32.7421 81.3649 32.3325 81.6849 31.8827 81.6283L31.8823 81.6282C31.4358 81.5714 31.1155 81.1611 31.1721 80.7113M32.5492 80.8854L32.7956 80.9158C33.1151 78.3267 34.2137 76.1715 36.1519 74.4279L36.152 74.4278C36.4873 74.1259 36.5161 73.6072 36.2144 73.2696C35.9142 72.9309 35.3955 72.9017 35.0593 73.2043L31.1721 80.7113M31.1721 80.7113C31.5411 77.723 32.8183 75.2211 35.0593 73.2044L31.1721 80.7113Z" fill="#011625" stroke="#011625" stroke-width="0.496396"/>
<path d="M30.8388 100.922C30.8086 100.693 30.772 100.392 30.728 100.029C30.4338 97.6015 29.8072 92.4321 28.5111 87.8569C27.5546 84.4791 26.2675 81.4128 24.4146 80.1522M30.8388 100.922L24.4146 80.1522M30.8388 100.922C30.8972 101.357 30.9791 101.608 31.0098 101.656M30.8388 100.922L31.0098 101.656M24.4146 80.1522L24.275 80.3574C24.275 80.3574 24.275 80.3575 24.275 80.3575L24.4146 80.1522ZM31.0098 101.656C31.1562 101.891 31.3535 101.927 31.488 101.931M31.0098 101.656L31.488 101.931M31.488 101.931C31.6824 101.934 31.8273 101.874 31.9386 101.791M31.488 101.931L31.9386 101.791M31.9386 101.791C32.0888 101.678 32.1992 101.503 32.2243 101.257M31.9386 101.791L32.2243 101.257M32.2243 101.257C32.237 101.121 32.2168 100.938 32.1812 100.745L32.2243 101.257ZM42.6737 73.2864C38.6221 78.272 36.5875 84.468 34.6016 90.5159C34.4184 91.0739 34.2355 91.6306 34.0516 92.185C33.3661 94.2507 32.7798 96.3027 32.4167 98.4502L42.6737 73.2864ZM42.6737 73.2864C42.8721 73.0421 42.8371 72.6805 42.5925 72.4802L42.6737 73.2864ZM8.67631 84.626L8.67629 84.6261C8.56898 85.1577 8.32513 85.6104 7.93735 85.889L8.67631 84.626ZM8.67631 84.626C8.77852 84.1186 8.75549 83.5174 8.67317 82.9578M8.67631 84.626L8.67317 82.9578M8.67317 82.9578C8.59915 82.4546 8.47472 81.9686 8.33689 81.5912L8.67317 82.9578ZM9.54435 80.1766C9.54435 80.1766 9.54436 80.1766 9.54436 80.1766L9.37003 79.9999L9.54435 80.1766ZM6.42324 81.5335C6.09843 82.0905 5.81866 82.6763 5.59447 83.286C5.485 83.583 5.29905 84.2263 5.33987 84.7679C5.38256 85.359 5.67002 85.8705 6.27319 86.0657L6.27335 86.0658C6.97921 86.2936 7.53051 86.1819 7.93724 85.8891L6.42324 81.5335ZM7.07276 84.2979L7.0727 84.2982C7.05538 84.3837 7.04044 84.4451 7.02145 84.492C7.00711 84.5274 6.99497 84.5429 6.98782 84.5497C6.98479 84.5499 6.98021 84.5501 6.97369 84.5498C6.97266 84.5498 6.97161 84.5497 6.97054 84.5497C6.97056 84.5481 6.97059 84.5466 6.97064 84.5452C6.98359 84.3111 7.05989 84.0522 7.11618 83.892C7.11194 84.0366 7.09805 84.1737 7.07276 84.2979Z" fill="#011625" stroke="#011625" stroke-width="0.496396"/>
</g>
<defs>
<linearGradient id="paint0_linear_428_1524" x1="74.2813" y1="-2.09254" x2="75.4761" y2="202.742" gradientUnits="userSpaceOnUse">
<stop stop-color="#E9E6E6"/>
<stop offset="0.276042" stop-color="#F7F7F7"/>
</linearGradient>
<clipPath id="clip0_428_1524">
<rect width="145" height="145" fill="white"/>
</clipPath>
</defs>
</svg>
